<?xml version="1.0" encoding="UTF-8" standalone="no"?>
<!-- Created with Inkscape (http://www.inkscape.org/) -->

<svg
   xmlns:dc="http://purl.org/dc/elements/1.1/"
   xmlns:cc="http://creativecommons.org/ns#"
   xmlns:rdf="http://www.w3.org/1999/02/22-rdf-syntax-ns#"
   xmlns:svg="http://www.w3.org/2000/svg"
   xmlns="http://www.w3.org/2000/svg"
   version="1.1"
   width="48"
   height="48"
   id="svg2985">
  <defs
     id="defs2987" />
  <metadata
     id="metadata2990">
    <rdf:RDF>
      <cc:Work
         rdf:about="">
        <dc:format>image/svg+xml</dc:format>
        <dc:type
           rdf:resource="http://purl.org/dc/dcmitype/StillImage" />
        <dc:title></dc:title>
      </cc:Work>
    </rdf:RDF>
  </metadata>
  <g
     id="layer1">
    <g
       transform="translate(-24.228476,-30.729714)"
       id="g3011">
      <g
         transform="matrix(0.5344751,0,0,0.57530372,21.754377,25.618711)"
         id="g2995">
        <path
           d="m 91.063,49.673 c -1.378,-1.436 -2.69,-2.555 -3.944,-3.384 0.599,-0.57 0.887,-1.15 0.746,-1.655 -0.344,-1.237 -3.128,-1.543 -6.218,-0.685 -1.572,0.438 -2.921,1.093 -3.821,1.794 -1.232,0.824 -2.39,2.028 -3.48,3.563 -0.653,0.918 -1.342,1.789 -2.047,2.619 -0.581,-0.558 -1.147,-0.809 -1.553,-0.617 -0.573,0.272 -0.665,1.357 -0.311,2.686 -0.583,0.617 -1.167,1.21 -1.741,1.783 -0.906,-0.855 -2.048,-1.502 -3.3,-1.793 C 65.329,52.649 65.352,51 65.479,50 h 0.654 c 0.526,0 0.952,-0.474 0.952,-1 0,-0.527 -0.426,-1 -0.952,-1 H 33.504 c -0.527,0 -0.954,0.473 -0.954,1 0,0.526 0.427,1 0.954,1 h 0.923 c 1.929,4 -0.684,9.583 -2.285,12.214 -0.393,0.522 -0.783,1.092 -1.108,1.65 C 31.032,63.866 31,63.943 31,63.943 v -0.022 c 0,0.135 -0.126,0.259 -0.201,0.396 -3.978,-0.282 -8.886,-2.027 -11.154,-8.816 -1.183,-3.149 -2.091,-5.5 -2.499,-6.5 h 0.117 c 0.426,0 0.77,-0.575 0.77,-1 0,-0.425 0.656,-1 0.23,-1 H 5.364 c -0.425,0 1.011,0.669 1.011,1.094 0,0.425 0.716,0.905 1.141,0.905 h 0.598 c 1.396,1 5.746,8.162 6.655,13.443 0.855,5.02 0.472,13.33 15.028,13.545 2.403,7.102 10.195,12.278 19.436,12.278 8.067,0 15.028,-3.979 18.267,-9.711 0.576,0.688 1.266,1.072 1.988,1.034 1.787,-0.095 3.099,-2.771 2.929,-5.974 -0.025,-0.47 -0.08,-0.925 -0.162,-1.358 1.825,-0.058 3.767,-0.375 5.745,-0.966 0.675,0.753 1.359,1.124 1.829,0.901 0.427,-0.201 0.586,-0.852 0.495,-1.717 1.536,-0.619 3.075,-1.402 4.581,-2.356 9.449,-5.983 10.616,-13.802 6.158,-18.446 z m -1.931,6.697 c -0.323,2.663 -2.723,5.591 -6.582,8.035 -1.267,0.802 -2.577,1.474 -3.914,2.01 -0.775,-1.028 -1.621,-1.582 -2.171,-1.321 -0.499,0.236 -0.633,1.087 -0.427,2.179 -1.514,0.396 -2.985,0.596 -4.387,0.596 -0.99,0 -1.904,-0.102 -2.712,-0.294 -0.008,-0.031 -0.016,-0.063 -0.024,-0.095 0.016,-0.075 -0.008,-0.159 -0.072,-0.253 -0.001,-0.001 -0.001,-0.002 -0.002,-0.003 -0.138,-0.466 -0.297,-0.924 -0.479,-1.374 1.631,-1.607 2.493,-3.762 2.335,-5.868 0.662,-0.649 1.345,-1.323 2.036,-2.028 0.518,0.442 1.012,0.628 1.376,0.455 0.521,-0.246 0.645,-1.166 0.396,-2.33 1.168,-1.286 2.33,-2.682 3.426,-4.223 0.808,-1.137 1.601,-1.961 2.359,-2.463 0.72,-0.477 1.231,-0.526 1.555,-0.526 l 0,0 c 0.872,0 2.816,0.496 6.044,3.858 0.993,1.034 1.411,2.258 1.243,3.645 z"
           id="path2997" />
        <path
           d="M 63.784,43.682 C 63.784,42.277 62.838,38 61.433,38 H 60.226 C 59.729,37 58.733,36.784 57.558,36.478 56.265,34.715 56.527,28.825 53.121,26.454 L 52.64,24.315 c 0,-0.128 -0.023,-0.314 -0.063,-0.314 H 52.911 54 c 0.553,0 1,-0.448 1,-1 0,-0.552 -0.447,-1 -1,-1 h -1.089 -0.503 l -0.537,-0.446 c 0,-0.445 -0.361,-0.554 -0.807,-0.554 h -0.593 c 1.16,0 2.022,-1.319 2.022,-2.564 0,-1.458 -1.182,-2.639 -2.639,-2.639 -1.459,0 -2.641,1.181 -2.641,2.638 0,1.245 0.862,2.565 2.022,2.565 h -0.593 c -0.445,0 -0.807,0.109 -0.807,0.554 L 47.301,22 H 46.799 46 c -0.552,0 -1,0.448 -1,1 0,0.552 0.448,1 1,1 h 0.799 0.407 c -0.042,0 -0.064,0.169 -0.064,0.298 l -0.481,2.154 c -3.413,2.37 -3.164,8.279 -4.458,10.042 C 41.028,36.801 40.033,37 39.538,38 h -1.261 c -1.406,0 -2.351,4.277 -2.351,5.682 l -3.375,1.024 c 0,1.406 1.139,2.294 2.545,2.294 h 29.519 c 1.405,0 2.545,-0.888 2.545,-2.294 l -3.376,-1.024 z"
           id="path2999" />
      </g>
    </g>
  </g>
</svg>
